<?xml version="1.0" standalone="no"?>
<!DOCTYPE svg PUBLIC "-//W3C//DTD SVG 20010904//EN"
 "http://www.w3.org/TR/2001/REC-SVG-20010904/DTD/svg10.dtd">
<svg version="1.0" xmlns="http://www.w3.org/2000/svg"
 width="512.000000pt" height="512.000000pt" viewBox="0 0 512.000000 512.000000"
 preserveAspectRatio="xMidYMid meet">

<g transform="translate(0.000000,512.000000) scale(0.100000,-0.100000)"
fill="#FFFFFF" stroke="none">
<path d="M1800 5055 c-688 -94 -1299 -542 -1596 -1171 -139 -294 -198 -561
-198 -894 0 -465 140 -879 423 -1255 414 -549 1111 -867 1789 -815 203 15 408
56 560 111 103 38 295 132 392 191 52 32 98 57 102 56 4 -2 270 -264 590 -584
673 -671 633 -639 803 -639 89 0 106 3 156 27 190 94 261 316 164 508 -9 19
-282 301 -605 625 l-589 590 51 80 c77 122 173 327 217 460 70 216 101 413
101 652 0 377 -95 729 -283 1046 l-40 69 116 116 116 116 66 -23 c172 -61 355
17 432 185 l24 54 265 0 264 0 0 85 0 85 -269 0 -269 0 -6 28 c-11 44 -73 126
-121 161 -65 46 -119 63 -206 63 -99 1 -179 -33 -245 -104 -60 -64 -86 -126
-92 -216 -4 -58 0 -84 18 -133 l22 -62 -106 -106 -106 -106 -42 50 c-72 87
-270 278 -353 341 -288 218 -605 352 -960 405 -153 22 -435 24 -585 4z m2528
-256 c103 -50 130 -181 55 -270 -100 -118 -302 -46 -303 108 0 78 34 131 105
164 52 24 89 24 143 -2z m-2060 -80 c318 -35 615 -153 873 -350 90 -68 241
-217 306 -301 l46 -60 -140 -140 -140 -140 -57 21 c-169 63 -357 -16 -431
-182 -36 -79 -39 -185 -8 -263 l20 -52 -282 -282 -283 -282 -56 21 c-73 27
-158 27 -238 0 l-62 -20 -194 194 -194 194 21 57 c13 36 21 80 21 121 0 251
-259 416 -488 310 -70 -32 -147 -112 -169 -175 l-18 -50 -208 0 c-194 0 -208
1 -203 18 3 9 12 46 21 82 117 471 493 921 940 1125 197 90 340 129 590 158
68 8 242 6 333 -4z m1375 -966 c82 -174 129 -324 158 -513 17 -106 17 -389 0
-495 -60 -381 -229 -714 -497 -981 -479 -476 -1181 -630 -1817 -400 -473 171
-863 562 -1035 1036 -72 198 -102 377 -102 605 l0 165 219 0 218 0 32 -64 c78
-159 251 -231 422 -176 l71 23 194 -194 195 -195 -15 -29 c-9 -16 -21 -54 -27
-84 -32 -153 51 -310 200 -379 81 -38 192 -38 276 1 168 78 243 254 184 429
l-20 61 281 282 282 282 52 -20 c80 -31 184 -28 264 8 80 36 152 112 182 193
27 70 24 194 -5 255 l-19 38 124 124 c69 69 127 125 131 125 3 0 26 -44 52
-97z m-517 -178 c113 -67 109 -240 -9 -302 -47 -25 -129 -21 -170 7 -67 46
-96 118 -77 189 30 114 154 166 256 106z m-1939 -156 c96 -36 142 -160 92
-248 -53 -94 -177 -118 -264 -50 -63 50 -78 158 -32 227 43 66 134 98 204 71z
m876 -873 c18 -7 47 -29 64 -49 76 -86 45 -220 -61 -268 -54 -25 -92 -24 -146
4 -105 52 -129 177 -53 268 47 56 127 74 196 45z"/>
</g>
</svg>
